<?xml version="1.0" encoding="UTF-8" standalone="no"?>
<!DOCTYPE svg PUBLIC "-//W3C//DTD SVG 1.1//EN"
 "http://www.w3.org/Graphics/SVG/1.1/DTD/svg11.dtd">
<!-- Generated by graphviz version 2.30.1 (20130214.1453)
 -->
<!-- Title: ethanol Pages: 1 -->
<svg width="332pt" height="152pt"
 viewBox="0.00 0.00 332.00 152.00" xmlns="http://www.w3.org/2000/svg" xmlns:xlink="http://www.w3.org/1999/xlink">
<g id="graph0" class="graph" transform="scale(1 1) rotate(0) translate(4 148)">
<title>ethanol</title>
<polygon fill="white" stroke="white" points="-4,5 -4,-148 329,-148 329,5 -4,5"/>
<!-- h1 -->
<g id="node1" class="node"><title>h1</title>
<ellipse fill="none" stroke="black" cx="18" cy="-126" rx="18.0209" ry="18.0209"/>
<text text-anchor="middle" x="18" y="-120.4" font-family="Times,serif" font-size="14.00">H</text>
</g>
<!-- c1 -->
<g id="node4" class="node"><title>c1</title>
<ellipse fill="lightgrey" stroke="black" cx="90" cy="-72" rx="18" ry="18"/>
<text text-anchor="middle" x="90" y="-66.4" font-family="Times,serif" font-size="14.00">C</text>
</g>
<!-- h1&#45;&#45;c1 -->
<g id="edge1" class="edge"><title>h1&#45;&#45;c1</title>
<path fill="none" stroke="black" d="M32.8297,-115.331C45.1017,-105.864 62.9357,-92.1067 75.199,-82.6465"/>
</g>
<!-- h2 -->
<g id="node2" class="node"><title>h2</title>
<ellipse fill="none" stroke="black" cx="18" cy="-72" rx="18.0209" ry="18.0209"/>
<text text-anchor="middle" x="18" y="-66.4" font-family="Times,serif" font-size="14.00">H</text>
</g>
<!-- h3 -->
<g id="node3" class="node"><title>h3</title>
<ellipse fill="none" stroke="black" cx="18" cy="-18" rx="18.0209" ry="18.0209"/>
<text text-anchor="middle" x="18" y="-12.4" font-family="Times,serif" font-size="14.00">H</text>
</g>
<!-- c1&#45;&#45;h2 -->
<g id="edge2" class="edge"><title>c1&#45;&#45;h2</title>
<path fill="none" stroke="black" d="M71.8957,-72C61.0833,-72 47.1537,-72 36.3034,-72"/>
</g>
<!-- c1&#45;&#45;h3 -->
<g id="edge3" class="edge"><title>c1&#45;&#45;h3</title>
<path fill="none" stroke="black" d="M75.199,-61.3535C62.9357,-51.8933 45.1017,-38.1356 32.8297,-28.6687"/>
</g>
<!-- c2 -->
<g id="node5" class="node"><title>c2</title>
<ellipse fill="lightgrey" stroke="black" cx="162" cy="-72" rx="18" ry="18"/>
<text text-anchor="middle" x="162" y="-66.4" font-family="Times,serif" font-size="14.00">C</text>
</g>
<!-- c1&#45;&#45;c2 -->
<g id="edge4" class="edge"><title>c1&#45;&#45;c2</title>
<path fill="none" stroke="black" d="M108.303,-72C119.154,-72 133.083,-72 143.896,-72"/>
</g>
<!-- h4 -->
<g id="node6" class="node"><title>h4</title>
<ellipse fill="none" stroke="black" cx="234" cy="-126" rx="18.0209" ry="18.0209"/>
<text text-anchor="middle" x="234" y="-120.4" font-family="Times,serif" font-size="14.00">H</text>
</g>
<!-- c2&#45;&#45;h4 -->
<g id="edge5" class="edge"><title>c2&#45;&#45;h4</title>
<path fill="none" stroke="black" d="M176.83,-82.6687C189.102,-92.1356 206.936,-105.893 219.199,-115.354"/>
</g>
<!-- o1 -->
<g id="node8" class="node"><title>o1</title>
<ellipse fill="none" stroke="red" cx="234" cy="-72" rx="18.0209" ry="18.0209"/>
<text text-anchor="middle" x="234" y="-66.4" font-family="Times,serif" font-size="14.00">O</text>
</g>
<!-- c2&#45;&#45;o1 -->
<g id="edge6" class="edge"><title>c2&#45;&#45;o1</title>
<path fill="none" stroke="black" d="M180.303,-72C191.154,-72 205.083,-72 215.896,-72"/>
</g>
<!-- h5 -->
<g id="node7" class="node"><title>h5</title>
<ellipse fill="none" stroke="black" cx="234" cy="-18" rx="18.0209" ry="18.0209"/>
<text text-anchor="middle" x="234" y="-12.4" font-family="Times,serif" font-size="14.00">H</text>
</g>
<!-- c2&#45;&#45;h5 -->
<g id="edge7" class="edge"><title>c2&#45;&#45;h5</title>
<path fill="none" stroke="black" d="M176.83,-61.3313C189.102,-51.8644 206.936,-38.1067 219.199,-28.6465"/>
</g>
<!-- h6 -->
<g id="node9" class="node"><title>h6</title>
<ellipse fill="none" stroke="black" cx="306" cy="-72" rx="18.0209" ry="18.0209"/>
<text text-anchor="middle" x="306" y="-66.4" font-family="Times,serif" font-size="14.00">H</text>
</g>
<!-- o1&#45;&#45;h6 -->
<g id="edge8" class="edge"><title>o1&#45;&#45;h6</title>
<path fill="none" stroke="black" d="M252.303,-72C263.154,-72 277.083,-72 287.896,-72"/>
</g>
</g>
</svg>
